<?xml version="1.0" encoding="UTF-8"?>
<svg xmlns="http://www.w3.org/2000/svg" viewBox="0 0 420 280" font-family="Segoe UI, system-ui, sans-serif">
  <rect width="420" height="280" fill="#f8fafc"/>
  <text x="210" y="24" text-anchor="middle" font-size="14" font-weight="600" fill="#0f172a">Rim and Decking Cross-Section (Lake Edge)</text>

  <rect x="0" y="200" width="420" height="80" fill="#bae6fd" opacity="0.5"/>
  <text x="20" y="240" font-size="11" fill="#0369a1">Water</text>

  <!-- 2x10 rim: top at y=120 -->
  <rect x="280" y="120" width="24" height="80" fill="#a16207" stroke="#713f12" stroke-width="1.5"/>
  <text x="292" y="115" text-anchor="middle" font-size="10" fill="#713f12">2x10</text>

  <!-- 2x12 face: top 1 in. above 2x10 (y=108) -->
  <rect x="304" y="108" width="28" height="92" fill="#92400e" stroke="#713f12" stroke-width="1.5"/>
  <text x="318" y="102" text-anchor="middle" font-size="10" fill="#713f12">2x12</text>

  <!-- 2x6 stringer: top flush with 2x10 top -->
  <rect x="180" y="120" width="100" height="14" fill="#ca8a04" stroke="#713f12" stroke-width="1"/>
  <text x="230" y="114" text-anchor="middle" font-size="9" fill="#713f12">2x6 stringer</text>
  <path d="M278 124 L280 124 L280 132 L278 132 Z" fill="#64748b"/>
  <text x="268" y="145" font-size="8" fill="#64748b">Joist hanger</text>

  <!-- Single 1x5 board: 1 in. thick, fills gap from 2x10 top to 2x12 top, cut edge against 2x12 -->
  <rect x="40" y="108" width="264" height="12" fill="#d97706" stroke="#92400e" stroke-width="0.75"/>
  <line x1="304" y1="108" x2="304" y2="120" stroke="#713f12" stroke-width="1"/>
  <text x="155" y="100" text-anchor="middle" font-size="9" fill="#92400e">1x5 decking - cut edge flush with 2x12 face</text>
  <text x="155" y="138" font-size="8" fill="#64748b">1/4 in. gap between adjacent boards (plan view)</text>

  <rect x="250" y="170" width="14" height="60" fill="#94a3b8" stroke="#475569" stroke-width="1.5"/>
  <text x="257" y="245" font-size="9" fill="#475569">Pipe</text>
  <text x="257" y="258" font-size="8" fill="#475569">(inside)</text>

  <!-- +1 in. offset annotation (filled by decking) -->
  <line x1="340" y1="108" x2="380" y2="108" stroke="#059669" stroke-width="1"/>
  <line x1="340" y1="120" x2="360" y2="120" stroke="#64748b" stroke-width="1"/>
  <line x1="380" y1="108" x2="380" y2="120" stroke="#059669" stroke-width="1"/>
  <text x="385" y="116" font-size="9" fill="#059669">1 in. gap (deck fills)</text>

  <line x1="332" y1="108" x2="332" y2="100" stroke="#334155"/>
  <text x="336" y="98" font-size="8" fill="#334155">Deck + 2x12 flush</text>
</svg>
